<svg xmlns="http://www.w3.org/2000/svg" width="2160" height="2160" viewBox="0 0 2160 2160" version="1.1"><path d="M 1051.902 23.382 C 1051.681 23.575, 1043.850 24.032, 1034.500 24.398 C 1025.150 24.763, 1015.475 25.248, 1013 25.475 C 1010.525 25.703, 1004.450 26.162, 999.500 26.494 C 988.859 27.209, 985.961 27.492, 963 30.054 C 940.249 32.592, 920.561 35.411, 899.500 39.146 C 890.150 40.804, 879.575 42.597, 876 43.132 C 865.527 44.697, 853.649 47.075, 836.500 51.040 C 833.750 51.676, 829.925 52.558, 828 53 C 826.075 53.442, 820.225 54.997, 815 56.456 C 809.775 57.915, 802.125 60.015, 798 61.123 C 786.327 64.259, 780.345 65.965, 771 68.823 C 761.692 71.669, 726.059 83.573, 722.500 85.025 C 717.933 86.888, 715.822 87.688, 712 89 C 710.075 89.661, 707.600 90.561, 706.500 90.999 C 656.768 110.821, 640.249 118.107, 606.544 135.086 C 586.097 145.387, 570.848 153.452, 565.770 156.650 C 563.718 157.943, 561.830 159, 561.574 159 C 561.318 159, 556.021 161.976, 549.804 165.614 C 543.587 169.252, 537.150 173.018, 535.500 173.984 C 526.707 179.129, 503.628 193.938, 490.147 203.084 C 481.703 208.813, 474.053 213.950, 473.147 214.500 C 472.241 215.050, 471.275 215.747, 471 216.048 C 470.725 216.350, 468.925 217.679, 467 219.002 C 458.947 224.536, 425.007 250.077, 419.056 255.081 C 415.511 258.062, 408.761 263.611, 404.056 267.414 C 376.815 289.427, 339.287 324.771, 310 355.997 C 303.125 363.327, 296.150 370.747, 294.500 372.486 C 292.850 374.225, 290.049 377.414, 288.275 379.574 C 286.501 381.733, 281.654 387.550, 277.504 392.500 C 241.573 435.354, 202.139 489.068, 182.799 521.500 C 180.831 524.800, 174.671 535.074, 169.110 544.331 C 163.550 553.587, 159 561.307, 159 561.485 C 159 561.662, 157.381 564.664, 155.401 568.154 C 146.672 583.546, 127.096 621.879, 121.007 635.500 C 116.988 644.492, 115.230 648.385, 111.525 656.500 C 109.516 660.900, 104.260 673.500, 99.844 684.500 C 95.429 695.500, 91.451 705.400, 91.005 706.500 C 89.937 709.137, 86.805 717.706, 83.514 727 C 82.053 731.125, 79.724 737.425, 78.338 741 C 73.788 752.735, 73.212 754.393, 69.990 765 C 68.236 770.775, 66.178 777.525, 65.418 780 C 63.592 785.947, 59.123 801.469, 57.790 806.500 C 57.207 808.700, 56.350 811.850, 55.885 813.500 C 54.369 818.885, 49.867 837.349, 48.449 844 C 47.686 847.575, 46.355 853.650, 45.489 857.500 C 41.338 875.968, 32.729 924.462, 31.532 936.123 C 31.172 939.630, 30.692 943.175, 30.465 944 C 29.414 947.820, 25.716 983.750, 24.495 1002 C 24.183 1006.675, 23.749 1011.400, 23.533 1012.500 C 22.134 1019.597, 21.162 1085.532, 21.977 1118 C 25.924 1275.207, 75.126 1455.296, 151.343 1591.500 C 154.479 1597.104, 156.436 1600.609, 162.370 1611.250 C 171.299 1627.261, 202.588 1677.210, 206.480 1681.667 C 207.041 1682.309, 209.525 1685.822, 212 1689.472 C 214.475 1693.123, 220.775 1701.889, 226 1708.952 C 231.225 1716.015, 236.175 1722.804, 237 1724.040 C 237.825 1725.275, 239.400 1727.306, 240.500 1728.554 C 241.600 1729.802, 243.175 1731.826, 244 1733.051 C 244.825 1734.276, 246.625 1736.678, 247.999 1738.389 C 249.374 1740.100, 250.949 1742.084, 251.499 1742.798 C 252.050 1743.512, 253.208 1744.862, 254.073 1745.798 C 254.938 1746.734, 259.438 1752.225, 264.073 1757.999 C 268.708 1763.774, 273.190 1769.188, 274.033 1770.032 C 274.876 1770.875, 277.984 1774.476, 280.940 1778.033 C 288.939 1787.658, 294.321 1793.095, 295.017 1792.251 C 295.880 1791.202, 296.489 1788.452, 305.536 1744.750 C 306.930 1738.013, 308.762 1729.350, 309.606 1725.500 C 311.443 1717.124, 312.224 1713.365, 315.533 1697 C 316.923 1690.125, 318.485 1682.700, 319.005 1680.500 C 328.462 1640.496, 328.951 1633.807, 322.755 1629.193 C 321.790 1628.475, 321 1627.237, 321 1626.443 C 321 1625.649, 320.550 1625, 320 1625 C 319.450 1625, 319 1624.347, 319 1623.550 C 319 1622.752, 318.433 1621.740, 317.740 1621.300 C 317.047 1620.860, 315.595 1618.813, 314.513 1616.750 C 313.431 1614.687, 312.203 1613, 311.785 1613 C 311.367 1613, 309.829 1611.088, 308.367 1608.750 C 306.905 1606.413, 305.099 1604.140, 304.354 1603.700 C 303.610 1603.260, 303 1602.463, 303 1601.929 C 303 1600.799, 298.133 1592.971, 296.515 1591.500 C 295.911 1590.950, 294.677 1588.925, 293.774 1587 C 292.871 1585.075, 291.202 1582.506, 290.066 1581.292 C 288.930 1580.077, 288 1578.450, 288 1577.677 C 288 1576.903, 287.100 1575.126, 286 1573.727 C 284.900 1572.329, 284 1570.693, 284 1570.092 C 284 1569.492, 283.550 1569, 283 1569 C 282.450 1569, 282 1568.473, 282 1567.829 C 282 1567.185, 281.370 1565.947, 280.601 1565.079 C 279.291 1563.602, 275.928 1557.862, 270.886 1548.500 C 269.701 1546.300, 268.430 1544.275, 268.062 1544 C 267.417 1543.519, 265.595 1540.211, 260.076 1529.500 C 258.659 1526.750, 257.163 1524.350, 256.750 1524.167 C 256.337 1523.983, 256 1522.971, 256 1521.917 C 256 1520.862, 255.645 1520, 255.211 1520 C 254.777 1520, 253.332 1517.525, 252 1514.500 C 250.668 1511.475, 249.276 1509, 248.906 1509 C 248.536 1509, 247.969 1508.213, 247.646 1507.250 C 247.322 1506.287, 246.617 1504.825, 246.077 1504 C 243.950 1500.746, 237 1485.102, 237 1483.567 C 237 1482.671, 236.325 1481.678, 235.500 1481.362 C 234.675 1481.045, 233.990 1479.822, 233.978 1478.643 C 233.966 1477.464, 233.076 1475.375, 232 1474 C 230.924 1472.625, 230.034 1470.713, 230.022 1469.750 C 230.010 1468.787, 229.550 1468, 229 1468 C 228.450 1468, 228 1467.127, 228 1466.059 C 228 1464.991, 227.550 1463.840, 227 1463.500 C 226.450 1463.160, 226 1462.064, 226 1461.063 C 226 1460.063, 225.337 1458.695, 224.526 1458.022 C 223.716 1457.349, 222.759 1455.157, 222.400 1453.150 C 222.041 1451.142, 221.182 1448.825, 220.492 1448 C 219.801 1447.175, 218.905 1445.375, 218.499 1444 C 218.094 1442.625, 216.868 1439.475, 215.775 1437 C 214.683 1434.525, 213.192 1431.150, 212.462 1429.500 C 211.732 1427.850, 210.455 1424.421, 209.624 1421.880 C 208.792 1419.339, 207.273 1415.739, 206.248 1413.880 C 205.223 1412.021, 203.776 1407.912, 203.032 1404.750 C 202.289 1401.588, 201.302 1399, 200.840 1399 C 200.378 1399, 200 1398.319, 200 1397.486 C 200 1396.654, 199.605 1395.191, 199.123 1394.236 C 197.818 1391.654, 196 1385.579, 196 1383.801 C 196 1382.945, 195.325 1381.685, 194.500 1381 C 193.675 1380.315, 193 1378.904, 193 1377.864 C 193 1376.824, 192.576 1375.191, 192.059 1374.236 C 191.541 1373.281, 189.640 1366.875, 187.835 1360 C 186.029 1353.125, 184.048 1347.050, 183.431 1346.500 C 182.815 1345.950, 181.744 1342.800, 181.051 1339.500 C 180.358 1336.200, 179.419 1332.600, 178.965 1331.500 C 178.511 1330.400, 177.610 1327.025, 176.963 1324 C 176.316 1320.975, 175.385 1317.719, 174.893 1316.764 C 174.402 1315.809, 174 1313.698, 174 1312.073 C 174 1310.448, 173.598 1308.869, 173.106 1308.565 C 172.614 1308.261, 171.948 1306.097, 171.626 1303.756 C 171.304 1301.415, 170.846 1298.150, 170.608 1296.500 C 170.370 1294.850, 169.179 1289.900, 167.961 1285.500 C 164.265 1272.149, 163.078 1266.319, 161.396 1253.250 C 161.024 1250.362, 160.370 1248, 159.942 1248 C 159.514 1248, 159.186 1245.605, 159.212 1242.677 C 159.238 1239.749, 158.751 1236.404, 158.130 1235.243 C 157.508 1234.082, 156.995 1231.414, 156.989 1229.316 C 156.983 1227.217, 156.292 1223.250, 155.453 1220.500 C 154.613 1217.750, 154.169 1214.519, 154.465 1213.319 C 154.761 1212.120, 154.506 1209.870, 153.897 1208.319 C 153.289 1206.769, 152.598 1202.125, 152.362 1198 C 152.126 1193.875, 151.533 1189.150, 151.045 1187.500 C 150.557 1185.850, 150.148 1181.719, 150.136 1178.320 C 150.125 1174.922, 149.685 1170.422, 149.160 1168.320 C 148.634 1166.219, 148.132 1159.565, 148.044 1153.532 C 147.956 1147.500, 147.467 1142.062, 146.957 1141.448 C 145.758 1140.003, 145.721 1020.047, 146.919 1018.582 C 147.405 1017.987, 148.091 1012.100, 148.443 1005.500 C 148.794 998.900, 149.298 989.450, 149.561 984.500 C 149.824 979.550, 150.448 973.925, 150.946 972 C 151.881 968.391, 153.858 952.998, 154.423 944.924 C 154.599 942.407, 155.251 939.400, 155.872 938.240 C 156.492 937.080, 157 934.272, 157 932 C 157 929.728, 157.443 927.040, 157.985 926.028 C 158.527 925.016, 159.200 921.783, 159.482 918.844 C 160.142 911.954, 161.558 902.789, 162.911 896.639 C 163.500 893.966, 163.753 891.409, 163.474 890.958 C 163.195 890.507, 163.425 889.856, 163.984 889.510 C 164.543 889.165, 165 887.424, 165 885.641 C 165 883.858, 165.439 881.961, 165.976 881.424 C 166.513 880.887, 167.137 878.092, 167.362 875.214 C 167.586 872.336, 168.325 869.314, 169.002 868.498 C 169.679 867.682, 170.300 865.692, 170.381 864.076 C 170.462 862.460, 170.860 860.807, 171.264 860.402 C 171.669 859.998, 172 858.193, 172 856.392 C 172 854.591, 172.450 852.840, 173 852.500 C 173.550 852.160, 174 850.360, 174 848.500 C 174 846.640, 174.450 844.840, 175 844.500 C 175.550 844.160, 176 842.360, 176 840.500 C 176 838.640, 176.450 836.840, 177 836.500 C 177.550 836.160, 178 834.659, 178 833.163 C 178 831.668, 178.715 829.424, 179.589 828.176 C 180.463 826.928, 180.903 825.190, 180.567 824.313 C 180.230 823.436, 180.664 821.635, 181.532 820.311 C 182.400 818.987, 182.972 817.094, 182.805 816.105 C 182.637 815.116, 183.115 813.566, 183.867 812.661 C 184.618 811.755, 185.322 809.773, 185.430 808.257 C 185.539 806.741, 186.386 803.758, 187.314 801.628 C 188.241 799.498, 189.014 796.798, 189.032 795.628 C 189.049 794.458, 189.715 792.640, 190.510 791.588 C 191.345 790.485, 191.709 788.688, 191.370 787.338 C 191.047 786.052, 191.192 785, 191.691 785 C 192.664 785, 195 779.297, 195 776.921 C 195 776.131, 196.125 773.371, 197.500 770.788 C 198.875 768.205, 200 765.481, 200 764.734 C 200 763.987, 200.900 761.513, 202 759.236 C 203.100 756.959, 204 754.143, 204 752.976 C 204 751.810, 205.160 748.877, 206.577 746.459 C 208.168 743.743, 208.918 741.317, 208.536 740.115 C 208.197 739.044, 208.396 737.874, 208.978 737.513 C 210.369 736.654, 215 727.486, 215 725.593 C 215 724.783, 216.350 721.518, 218 718.337 C 219.650 715.157, 221 711.819, 221 710.918 C 221 709.289, 226.406 698.359, 228.107 696.550 C 228.598 696.027, 229 694.660, 229 693.511 C 229 691.402, 234.038 681.068, 238.553 673.916 C 239.899 671.784, 241 668.718, 241 667.103 C 241 665.488, 241.351 664.017, 241.781 663.833 C 242.211 663.650, 243.223 662.137, 244.031 660.472 C 244.839 658.806, 255.850 639.555, 268.500 617.691 C 281.150 595.828, 292.811 575.590, 294.414 572.720 C 296.016 569.849, 297.703 567.350, 298.164 567.167 C 298.624 566.983, 299 566.151, 299 565.318 C 299 564.484, 300.419 562.477, 302.153 560.857 C 305.057 558.144, 314 544.739, 314 543.099 C 314 542.707, 315.939 540.305, 318.308 537.760 C 320.678 535.216, 323.694 531.040, 325.010 528.481 C 326.326 525.922, 328.533 522.939, 329.914 521.853 C 332.334 519.950, 335.852 514.875, 337.915 510.311 C 338.459 509.107, 339.801 507.641, 340.898 507.055 C 341.994 506.468, 344.153 503.737, 345.696 500.985 C 347.238 498.234, 349.274 495.736, 350.219 495.434 C 351.164 495.132, 353.148 492.661, 354.628 489.942 C 356.107 487.224, 357.837 485, 358.471 485 C 359.861 485, 363.444 480.326, 364.427 477.231 C 364.816 476.004, 365.737 475, 366.474 475 C 367.210 475, 369.429 472.750, 371.405 470 C 373.380 467.250, 375.350 465, 375.783 465 C 376.215 465, 377.398 463.596, 378.412 461.879 C 379.426 460.163, 384.923 453.988, 390.628 448.158 C 396.333 442.327, 401 436.982, 401 436.278 C 401 435.575, 401.663 435, 402.474 435 C 403.285 435, 404.647 433.650, 405.500 432 C 406.353 430.350, 407.678 429, 408.444 429 C 409.210 429, 410.810 427.425, 412 425.500 C 413.190 423.575, 414.801 422, 415.582 422 C 416.362 422, 417 421.553, 417 421.006 C 417 419.680, 425.602 411, 426.916 411 C 427.484 411, 428.647 409.650, 429.500 408 C 430.353 406.350, 431.684 405, 432.458 405 C 433.232 405, 434.151 404.100, 434.500 403 C 434.849 401.900, 435.673 401, 436.330 401 C 436.987 401, 442.322 396.388, 448.186 390.750 C 454.049 385.113, 460.978 378.700, 463.583 376.500 C 466.188 374.300, 469.563 371.262, 471.083 369.750 C 472.603 368.238, 474.283 367, 474.816 367 C 475.350 367, 476.045 366.325, 476.362 365.500 C 476.678 364.675, 477.525 364, 478.243 364 C 478.962 364, 481.359 362.087, 483.571 359.750 C 485.783 357.413, 488.752 354.892, 490.169 354.149 C 491.586 353.406, 494.811 350.819, 497.336 348.399 C 499.861 345.980, 502.293 344, 502.741 344 C 503.188 344, 505.032 342.650, 506.839 341 C 508.645 339.350, 510.330 338, 510.583 338 C 510.836 338, 513.906 335.750, 517.405 333 C 520.905 330.250, 524.020 328, 524.328 328 C 524.636 328, 526.601 326.427, 528.694 324.505 C 530.787 322.582, 533.063 321.007, 533.750 321.005 C 534.438 321.002, 535 320.550, 535 320 C 535 319.450, 535.437 319, 535.971 319 C 537.269 319, 546.289 312.830, 547.300 311.250 C 547.740 310.563, 548.640 309.998, 549.300 309.995 C 549.960 309.993, 552.055 308.530, 553.955 306.745 C 557.611 303.311, 558.321 302.822, 564.864 299.230 C 567.139 297.981, 569 296.628, 569 296.224 C 569 295.819, 570.462 294.843, 572.250 294.055 C 574.038 293.267, 577.525 291.199, 580 289.458 C 582.475 287.717, 585.962 285.667, 587.750 284.902 C 589.538 284.138, 591 283.172, 591 282.756 C 591 282.340, 591.605 282, 592.345 282 C 593.085 282, 594.505 281.100, 595.500 280 C 596.495 278.900, 597.682 278, 598.137 278 C 598.592 278, 601.906 276.200, 605.500 274 C 609.094 271.800, 612.422 270, 612.895 270 C 613.368 270, 614.315 269.325, 615 268.500 C 615.685 267.675, 616.842 267, 617.572 267 C 618.302 267, 620.835 265.711, 623.200 264.135 C 625.565 262.559, 629.300 260.445, 631.500 259.437 C 633.700 258.429, 635.725 257.332, 636 257 C 636.275 256.668, 638.075 255.619, 640 254.670 C 641.925 253.721, 644.175 252.540, 645 252.045 C 645.825 251.549, 647.175 250.882, 648 250.561 C 648.825 250.240, 650.850 249.119, 652.500 248.069 C 655.462 246.184, 663.187 242.297, 670 239.265 C 671.925 238.408, 674.175 237.320, 675 236.846 C 675.825 236.373, 677.625 235.500, 679 234.908 C 680.375 234.315, 683.300 232.967, 685.500 231.912 C 687.700 230.857, 689.950 229.986, 690.500 229.975 C 691.050 229.964, 692.625 229.076, 694 228 C 695.375 226.924, 697.457 226.034, 698.628 226.022 C 699.798 226.010, 701.315 225.325, 702 224.500 C 702.685 223.675, 703.864 223, 704.620 223 C 705.376 223, 708.852 221.650, 712.344 220 C 715.836 218.350, 719.199 217, 719.816 217 C 720.434 217, 722.542 216.100, 724.500 215 C 726.458 213.900, 728.947 213, 730.030 213 C 731.114 213, 732 212.550, 732 212 C 732 211.450, 732.873 211, 733.941 211 C 735.009 211, 736.160 210.550, 736.500 210 C 736.840 209.450, 737.879 208.998, 738.809 208.996 C 739.739 208.994, 742.525 207.966, 745 206.712 C 747.475 205.458, 752.087 203.813, 755.250 203.057 C 758.413 202.300, 761 201.365, 761 200.980 C 761 200.329, 770.939 196.939, 777.250 195.438 C 778.763 195.078, 780 194.480, 780 194.110 C 780 193.740, 782.138 192.843, 784.750 192.118 C 787.362 191.393, 793.100 189.760, 797.500 188.490 C 801.900 187.220, 807.075 185.858, 809 185.465 C 810.925 185.071, 812.802 184.274, 813.170 183.695 C 813.539 183.115, 814.439 182.539, 815.170 182.415 C 817.676 181.990, 826.499 179.733, 828.500 179.005 C 833.798 177.077, 837.834 176, 839.762 176 C 840.928 176, 842.160 175.550, 842.500 175 C 842.840 174.450, 844.865 174, 847 174 C 849.135 174, 851.160 173.550, 851.500 173 C 851.840 172.450, 853.640 172, 855.500 172 C 857.360 172, 859.163 171.545, 859.507 170.989 C 859.850 170.433, 861.339 170.048, 862.816 170.132 C 864.292 170.217, 870.900 168.813, 877.500 167.013 C 884.100 165.212, 892.200 163.359, 895.500 162.894 C 898.800 162.429, 903.525 161.767, 906 161.422 C 908.475 161.077, 910.928 160.391, 911.450 159.898 C 911.972 159.404, 914.983 159, 918.141 159 C 921.299 159, 924.160 158.550, 924.500 158 C 924.840 157.450, 927.285 157, 929.933 157 C 932.582 157, 936.615 156.342, 938.895 155.537 C 941.176 154.732, 944.983 154.113, 947.356 154.160 C 949.729 154.208, 952.679 153.707, 953.913 153.047 C 955.147 152.386, 956.706 152.057, 957.378 152.315 C 958.049 152.572, 961.727 152.375, 965.549 151.875 C 980.413 149.933, 991.997 148.876, 1003.968 148.367 C 1010.826 148.075, 1017.209 147.424, 1018.152 146.918 C 1020.462 145.682, 1141.295 145.699, 1142.550 146.936 C 1143.072 147.451, 1148.675 147.974, 1155 148.099 C 1161.325 148.224, 1167.850 148.677, 1169.500 149.105 C 1171.150 149.534, 1176.100 150.081, 1180.500 150.320 C 1184.900 150.560, 1189.175 151.013, 1190 151.326 C 1190.825 151.640, 1194.425 152.131, 1198 152.417 C 1201.575 152.704, 1207.643 153.371, 1211.485 153.901 C 1215.326 154.431, 1218.648 154.686, 1218.866 154.467 C 1219.084 154.249, 1220.216 154.598, 1221.381 155.242 C 1222.547 155.887, 1226.200 156.784, 1229.500 157.237 C 1232.800 157.689, 1238.425 158.509, 1242 159.058 C 1245.575 159.607, 1250.525 160.317, 1253 160.636 C 1255.475 160.954, 1258.012 161.629, 1258.637 162.136 C 1259.263 162.643, 1262.323 163.125, 1265.438 163.207 C 1268.553 163.289, 1271.331 163.726, 1271.610 164.178 C 1271.889 164.630, 1273.246 165, 1274.625 165 C 1276.003 165, 1277.937 165.431, 1278.923 165.959 C 1279.908 166.486, 1282.696 167.087, 1285.118 167.296 C 1287.541 167.504, 1290.500 168.197, 1291.696 168.837 C 1292.891 169.477, 1295.222 170, 1296.875 170 C 1298.529 170, 1300.160 170.450, 1300.500 171 C 1300.840 171.550, 1302.640 172, 1304.500 172 C 1306.360 172, 1308.160 172.450, 1308.500 173 C 1308.840 173.550, 1310.640 174, 1312.500 174 C 1314.360 174, 1316.129 174.400, 1316.432 174.890 C 1316.734 175.379, 1318.448 176.032, 1320.241 176.342 C 1327.617 177.616, 1330.415 178.334, 1332.770 179.556 C 1334.133 180.263, 1335.845 180.613, 1336.573 180.334 C 1337.301 180.054, 1339.157 180.483, 1340.698 181.285 C 1344.389 183.208, 1350.146 185, 1352.633 185 C 1353.728 185, 1356.487 185.900, 1358.764 187 C 1361.041 188.100, 1364.024 189, 1365.393 189 C 1366.762 189, 1368.160 189.450, 1368.500 190 C 1368.840 190.550, 1370.193 191, 1371.506 191 C 1372.820 191, 1376.028 192.134, 1378.635 193.521 C 1381.242 194.907, 1383.854 195.875, 1384.438 195.671 C 1385.022 195.468, 1387.068 196.133, 1388.985 197.151 C 1390.902 198.168, 1393.068 199, 1393.799 199 C 1394.530 199, 1397.588 200.125, 1400.594 201.500 C 1403.600 202.875, 1406.900 204, 1407.928 204 C 1408.955 204, 1411.729 205.098, 1414.091 206.440 C 1416.453 207.782, 1418.753 208.652, 1419.202 208.375 C 1419.651 208.098, 1423.225 209.475, 1427.143 211.435 C 1431.062 213.396, 1434.873 215, 1435.612 215 C 1436.351 215, 1439.450 216.350, 1442.500 218 C 1445.550 219.650, 1449.122 221, 1450.439 221 C 1451.756 221, 1452.983 221.338, 1453.167 221.750 C 1453.538 222.586, 1466.117 229, 1467.386 229 C 1468.654 229, 1482.924 235.927, 1487.146 238.592 C 1489.244 239.917, 1491.828 241, 1492.888 241 C 1494.902 241, 1504.027 245.640, 1514.852 252.169 C 1518.346 254.276, 1521.320 256, 1521.462 256 C 1521.603 256, 1533.778 262.975, 1548.516 271.500 L 1575.313 287 1678.896 287 L 1782.480 287 1779.990 284.720 C 1764.346 270.396, 1721.065 236.242, 1696 218.441 C 1677.937 205.613, 1638.549 179.685, 1628.250 173.844 C 1626.463 172.830, 1623.454 171.124, 1621.565 170.054 C 1619.676 168.983, 1616.414 167.034, 1614.315 165.722 C 1612.217 164.410, 1608.025 161.976, 1605 160.314 C 1601.975 158.651, 1597.250 156.022, 1594.500 154.470 C 1580.430 146.532, 1575.664 144.047, 1553.500 133.099 C 1540.300 126.579, 1527.362 120.289, 1524.750 119.122 C 1515.624 115.045, 1510.453 112.714, 1504.225 109.868 C 1500.774 108.290, 1497.731 107, 1497.464 107 C 1497.197 107, 1495.071 106.160, 1492.739 105.134 C 1490.408 104.108, 1485.350 102.008, 1481.500 100.467 C 1477.650 98.927, 1472.700 96.895, 1470.500 95.952 C 1468.300 95.009, 1464.925 93.688, 1463 93.017 C 1461.075 92.347, 1458.600 91.428, 1457.500 90.975 C 1456.400 90.522, 1451 88.510, 1445.500 86.504 C 1440 84.498, 1434.719 82.439, 1433.764 81.929 C 1432.809 81.418, 1431.148 81, 1430.073 81 C 1428.998 81, 1427.840 80.550, 1427.500 80 C 1427.160 79.450, 1425.810 79, 1424.500 79 C 1423.190 79, 1421.840 78.550, 1421.500 78 C 1421.160 77.450, 1420.002 77, 1418.927 77 C 1417.852 77, 1416.191 76.594, 1415.236 76.098 C 1413.432 75.160, 1395.928 69.399, 1390.250 67.873 C 1388.463 67.393, 1385.537 66.575, 1383.750 66.056 C 1381.963 65.537, 1378.700 64.612, 1376.500 64 C 1374.300 63.388, 1371.150 62.502, 1369.500 62.032 C 1345.687 55.243, 1336.974 53.019, 1318.750 49.082 C 1316.412 48.577, 1311.350 47.432, 1307.500 46.537 C 1303.650 45.643, 1297.575 44.533, 1294 44.070 C 1290.425 43.608, 1276.925 41.377, 1264 39.113 C 1244.426 35.684, 1220.434 32.082, 1206.500 30.481 C 1193.224 28.956, 1160.352 25.994, 1151 25.482 C 1144.675 25.135, 1137.475 24.657, 1135 24.420 C 1129.268 23.870, 1052.440 22.911, 1051.902 23.382 M 1865 371.499 C 1865 371.774, 1858.471 404.737, 1850.490 444.749 C 1832.768 533.608, 1833.727 526.695, 1838.370 532.119 C 1840.366 534.451, 1842 536.954, 1842 537.680 C 1842 538.406, 1842.367 539, 1842.815 539 C 1843.263 539, 1844.370 540.553, 1845.275 542.451 C 1846.180 544.349, 1848.064 546.651, 1849.460 547.566 C 1850.857 548.481, 1852.008 549.966, 1852.017 550.865 C 1852.027 551.764, 1853.152 553.560, 1854.517 554.855 C 1855.883 556.150, 1857 557.590, 1857 558.055 C 1857 558.520, 1858.463 560.996, 1860.250 563.557 C 1864.875 570.185, 1866.680 573.047, 1868.569 576.750 C 1869.482 578.538, 1870.627 580, 1871.114 580 C 1871.601 580, 1872 580.900, 1872 582 C 1872 583.100, 1872.398 584, 1872.883 584 C 1873.369 584, 1874.025 584.788, 1874.341 585.750 C 1874.905 587.472, 1876.815 590.627, 1882.250 598.816 C 1883.763 601.095, 1885 603.644, 1885 604.480 C 1885 605.316, 1885.473 606, 1886.052 606 C 1886.631 606, 1887.575 607.350, 1888.150 609 C 1888.725 610.650, 1889.602 612, 1890.098 612 C 1890.594 612, 1891 612.900, 1891 614 C 1891 615.100, 1891.461 616, 1892.025 616 C 1892.588 616, 1893.469 617.103, 1893.982 618.451 C 1894.494 619.800, 1896.058 622.716, 1897.457 624.932 C 1898.856 627.147, 1900 629.644, 1900 630.480 C 1900 631.316, 1900.338 632.004, 1900.750 632.008 C 1901.528 632.016, 1904 636.759, 1904 638.243 C 1904 638.707, 1905.109 640.284, 1906.465 641.746 C 1907.821 643.208, 1909.213 645.693, 1909.559 647.269 C 1909.905 648.846, 1910.821 650.378, 1911.594 650.675 C 1912.367 650.971, 1913 652.066, 1913 653.107 C 1913 654.148, 1913.450 655, 1914 655 C 1914.550 655, 1915.002 655.788, 1915.004 656.750 C 1915.006 657.712, 1915.906 659.973, 1917.004 661.774 C 1918.102 663.575, 1919 665.664, 1919 666.417 C 1919 667.170, 1919.675 668.045, 1920.500 668.362 C 1921.325 668.678, 1922 669.703, 1922 670.640 C 1922 672.096, 1926.056 681.619, 1929.069 687.236 C 1929.581 688.191, 1930 689.654, 1930 690.486 C 1930 691.319, 1930.450 692, 1931 692 C 1931.550 692, 1932 692.900, 1932 694 C 1932 695.100, 1932.450 696, 1933 696 C 1933.550 696, 1934 696.718, 1934 697.596 C 1934 698.473, 1934.739 700.611, 1935.643 702.346 C 1938.659 708.137, 1939 708.964, 1939 710.486 C 1939 711.319, 1939.450 712, 1940 712 C 1940.550 712, 1941 712.900, 1941 714 C 1941 715.100, 1941.450 716, 1942 716 C 1942.550 716, 1943 717.350, 1943 719 C 1943 720.650, 1943.450 722, 1944 722 C 1944.550 722, 1945 722.590, 1945 723.312 C 1945 724.034, 1945.986 726.621, 1947.190 729.062 C 1948.395 731.503, 1949.488 733.950, 1949.620 734.500 C 1949.911 735.709, 1951.945 741.469, 1953.418 745.250 C 1954.006 746.763, 1954.828 748, 1955.244 748 C 1955.660 748, 1956 749.323, 1956 750.941 C 1956 752.559, 1956.450 754.160, 1957 754.500 C 1957.550 754.840, 1958 756.441, 1958 758.059 C 1958 759.677, 1958.340 761, 1958.756 761 C 1959.695 761, 1961.226 764.709, 1963.503 772.500 C 1964.468 775.800, 1965.649 778.928, 1966.129 779.450 C 1966.608 779.973, 1967 781.435, 1967 782.700 C 1967 783.965, 1967.450 785, 1968 785 C 1968.550 785, 1969 786.323, 1969 787.941 C 1969 789.559, 1969.450 791.160, 1970 791.500 C 1970.550 791.840, 1971 793.415, 1971 795 C 1971 796.585, 1971.364 798.107, 1971.810 798.382 C 1972.255 798.657, 1973.238 801.848, 1973.994 805.472 C 1974.750 809.096, 1975.961 812.553, 1976.685 813.153 C 1977.408 813.754, 1978 815.288, 1978 816.563 C 1978 817.839, 1978.450 819.160, 1979 819.500 C 1979.550 819.840, 1980 821.891, 1980 824.059 C 1980 826.227, 1980.450 828, 1981 828 C 1981.550 828, 1982 829.323, 1982 830.941 C 1982 832.559, 1982.450 834.160, 1983 834.500 C 1983.550 834.840, 1984 836.891, 1984 839.059 C 1984 841.227, 1984.450 843, 1985 843 C 1985.550 843, 1986 844.773, 1986 846.941 C 1986 849.109, 1986.450 851.160, 1987 851.500 C 1987.550 851.840, 1988 853.611, 1988 855.437 C 1988 857.262, 1988.681 859.321, 1989.514 860.012 C 1990.391 860.739, 1990.996 862.792, 1990.951 864.884 C 1990.865 868.850, 1993.097 879.431, 1994.266 880.599 C 1994.670 881.003, 1995 882.807, 1995 884.608 C 1995 886.409, 1995.450 888.160, 1996 888.500 C 1996.550 888.840, 1997 891.765, 1997 895 C 1997 898.235, 1997.450 901.160, 1998 901.500 C 1998.550 901.840, 1999 904.341, 1999 907.059 C 1999 909.777, 1999.450 912, 2000 912 C 2000.554 912, 2001 914.647, 2001 917.941 C 2001 921.209, 2001.450 924.160, 2002 924.500 C 2002.550 924.840, 2003.016 927.454, 2003.035 930.309 C 2003.055 933.164, 2003.714 936.625, 2004.500 938 C 2005.301 939.401, 2005.945 943.222, 2005.965 946.691 C 2005.984 950.096, 2006.381 953.118, 2006.847 953.406 C 2007.313 953.694, 2007.765 957.613, 2007.850 962.116 C 2007.936 966.618, 2008.420 970.801, 2008.926 971.411 C 2009.856 972.532, 2010.522 980.857, 2011.570 1004.500 C 2011.887 1011.650, 2012.563 1017.928, 2013.073 1018.450 C 2014.346 1019.755, 2014.313 1141.725, 2013.039 1142.167 C 2012.508 1142.351, 2012.011 1147.857, 2011.928 1154.476 C 2011.846 1161.062, 2011.411 1167.418, 2010.962 1168.600 C 2010.513 1169.782, 2010.039 1174.518, 2009.909 1179.125 C 2009.780 1183.731, 2009.330 1188.198, 2008.908 1189.051 C 2008.487 1189.904, 2007.900 1193.954, 2007.603 1198.051 C 2007.307 1202.148, 2006.636 1208.415, 2006.114 1211.978 C 2005.592 1215.541, 2005.391 1218.824, 2005.668 1219.272 C 2005.945 1219.721, 2005.582 1220.798, 2004.861 1221.667 C 2003.604 1223.182, 2002.517 1229.189, 2001.362 1241 C 2001.066 1244.025, 2000.414 1246.927, 1999.912 1247.450 C 1999.410 1247.972, 1999 1250.533, 1999 1253.141 C 1999 1255.749, 1998.550 1258.160, 1998 1258.500 C 1997.450 1258.840, 1997 1261.765, 1997 1265 C 1997 1268.235, 1996.550 1271.160, 1996 1271.500 C 1995.450 1271.840, 1995 1273.576, 1995 1275.359 C 1995 1277.142, 1994.544 1279.056, 1993.986 1279.614 C 1993.429 1280.171, 1992.884 1282.848, 1992.775 1285.564 C 1992.666 1288.279, 1991.955 1291.136, 1991.196 1291.914 C 1990.360 1292.769, 1990.033 1294.413, 1990.365 1296.076 C 1990.717 1297.833, 1990.389 1299.262, 1989.458 1300.035 C 1988.656 1300.701, 1988 1302.738, 1988 1304.563 C 1988 1306.389, 1987.550 1308.160, 1987 1308.500 C 1986.450 1308.840, 1986 1310.640, 1986 1312.500 C 1986 1314.360, 1985.550 1316.160, 1985 1316.500 C 1984.450 1316.840, 1984 1318.640, 1984 1320.500 C 1984 1322.360, 1983.550 1324.160, 1983 1324.500 C 1982.450 1324.840, 1982 1326.415, 1982 1328 C 1982 1329.585, 1981.550 1331.160, 1981 1331.500 C 1980.450 1331.840, 1980 1333.566, 1980 1335.337 C 1980 1337.107, 1979.296 1339.560, 1978.436 1340.788 C 1977.576 1342.016, 1977.139 1343.863, 1977.466 1344.892 C 1977.847 1346.092, 1977.483 1346.984, 1976.453 1347.380 C 1975.317 1347.816, 1974.933 1349.005, 1975.144 1351.444 C 1975.307 1353.341, 1975.077 1355.254, 1974.632 1355.696 C 1973.230 1357.090, 1971 1363.148, 1971 1365.563 C 1971 1366.838, 1970.550 1368.160, 1970 1368.500 C 1969.450 1368.840, 1969 1370.441, 1969 1372.059 C 1969 1373.677, 1968.550 1375, 1968 1375 C 1967.450 1375, 1967 1375.800, 1967 1376.777 C 1967 1377.755, 1966.285 1379.576, 1965.411 1380.824 C 1964.537 1382.072, 1964.098 1383.812, 1964.435 1384.691 C 1964.772 1385.570, 1964.419 1387.012, 1963.651 1387.895 C 1962.882 1388.778, 1961.707 1391.300, 1961.039 1393.500 C 1960.371 1395.700, 1958.965 1399.408, 1957.913 1401.739 C 1956.861 1404.071, 1956 1406.867, 1956 1407.954 C 1956 1409.040, 1954.893 1411.913, 1953.539 1414.337 C 1952.186 1416.761, 1951.336 1419.003, 1951.652 1419.319 C 1951.968 1419.635, 1950.600 1423.183, 1948.613 1427.205 C 1946.626 1431.227, 1945 1435.301, 1945 1436.259 C 1945 1437.216, 1944.550 1438, 1944 1438 C 1943.450 1438, 1943 1438.693, 1943 1439.540 C 1943 1440.387, 1942.100 1442.844, 1941 1445 C 1939.900 1447.156, 1939 1449.806, 1939 1450.888 C 1939 1451.971, 1937.389 1455.560, 1935.421 1458.865 C 1933.452 1462.170, 1931.749 1465.464, 1931.635 1466.187 C 1931.522 1466.909, 1930.657 1469.032, 1929.715 1470.904 C 1928.772 1472.776, 1928 1474.640, 1928 1475.046 C 1928 1475.452, 1925.975 1479.385, 1923.500 1483.786 C 1921.025 1488.187, 1919 1492.465, 1919 1493.293 C 1919 1495.020, 1910.729 1510.772, 1904.976 1520 C 1904.462 1520.825, 1899.389 1529.600, 1893.702 1539.500 C 1888.016 1549.400, 1880.259 1562.900, 1876.464 1569.500 C 1872.668 1576.100, 1868.987 1582.095, 1868.282 1582.821 C 1867.577 1583.548, 1867 1584.608, 1867 1585.176 C 1867 1585.745, 1865.763 1588.075, 1864.250 1590.355 C 1862.737 1592.635, 1860.861 1595.737, 1860.081 1597.250 C 1859.301 1598.762, 1858.176 1600.006, 1857.581 1600.012 C 1856.518 1600.025, 1853.810 1603.860, 1851.073 1609.233 C 1850.307 1610.736, 1848.852 1612.855, 1847.840 1613.941 C 1846.828 1615.028, 1846 1616.499, 1846 1617.211 C 1846 1617.924, 1844.657 1619.774, 1843.015 1621.324 C 1841.373 1622.874, 1839.251 1625.460, 1838.299 1627.071 C 1837.347 1628.682, 1836.216 1630, 1835.784 1630 C 1835.353 1630, 1835 1630.741, 1835 1631.646 C 1835 1632.552, 1833.088 1635.442, 1830.750 1638.070 C 1825.083 1644.439, 1822 1648.591, 1822 1649.851 C 1822 1650.421, 1821.186 1651.475, 1820.192 1652.193 C 1819.198 1652.912, 1816.707 1656.045, 1814.657 1659.157 C 1812.607 1662.268, 1810.294 1665.057, 1809.517 1665.355 C 1808.740 1665.653, 1807.345 1667.383, 1806.416 1669.199 C 1805.487 1671.014, 1802.763 1674.368, 1800.364 1676.651 C 1797.964 1678.934, 1796 1681.312, 1796 1681.935 C 1796 1682.559, 1793.075 1685.980, 1789.500 1689.537 C 1785.925 1693.094, 1783 1696.456, 1783 1697.007 C 1783 1697.557, 1778.394 1702.752, 1772.765 1708.549 C 1767.135 1714.347, 1762.114 1719.832, 1761.606 1720.739 C 1760.353 1722.978, 1723.804 1759.589, 1722.315 1760.096 C 1721.664 1760.318, 1716.016 1765.495, 1709.764 1771.600 C 1703.513 1777.705, 1697.898 1782.880, 1697.288 1783.100 C 1696.677 1783.320, 1693.212 1786.313, 1689.587 1789.750 C 1685.963 1793.187, 1682.579 1796, 1682.066 1796 C 1681.554 1796, 1678.579 1798.475, 1675.456 1801.500 C 1672.333 1804.525, 1669.300 1807, 1668.717 1807 C 1668.134 1807, 1665.717 1809.025, 1663.345 1811.500 C 1660.974 1813.975, 1658.552 1816, 1657.963 1816 C 1657.374 1816, 1655.453 1817.348, 1653.696 1818.995 C 1651.938 1820.643, 1650.105 1821.993, 1649.621 1821.995 C 1649.138 1821.998, 1647.001 1823.463, 1644.872 1825.250 C 1642.743 1827.037, 1639.258 1829.963, 1637.129 1831.750 C 1634.999 1833.538, 1632.979 1835, 1632.640 1835 C 1632.300 1835, 1629.360 1837.025, 1626.105 1839.500 C 1622.851 1841.975, 1619.696 1844, 1619.094 1844 C 1618.492 1844, 1618 1844.450, 1618 1845 C 1618 1845.550, 1617.424 1846, 1616.721 1846 C 1616.017 1846, 1614.793 1846.900, 1614 1848 C 1613.207 1849.100, 1611.953 1850, 1611.212 1850 C 1610.472 1850, 1608.209 1851.571, 1606.183 1853.491 C 1604.157 1855.412, 1602.050 1857.016, 1601.500 1857.058 C 1600.950 1857.099, 1598.475 1858.667, 1596 1860.542 C 1593.525 1862.416, 1589.661 1864.839, 1587.414 1865.926 C 1585.166 1867.012, 1582.741 1868.607, 1582.026 1869.469 C 1581.310 1870.331, 1579.099 1871.793, 1577.112 1872.716 C 1575.126 1873.640, 1573.275 1874.645, 1573 1874.949 C 1572.725 1875.254, 1571.150 1876.157, 1569.500 1876.956 C 1567.850 1877.755, 1565.600 1879.175, 1564.500 1880.112 C 1563.400 1881.048, 1560.700 1882.780, 1558.500 1883.959 C 1556.300 1885.139, 1553.617 1886.643, 1552.538 1887.302 C 1545.149 1891.814, 1542.866 1893, 1541.570 1893 C 1540.761 1893, 1539.740 1893.563, 1539.300 1894.250 C 1538.396 1895.663, 1536.455 1896.836, 1526.500 1901.989 C 1522.650 1903.982, 1518.286 1906.411, 1516.802 1907.387 C 1515.318 1908.363, 1513.518 1909.273, 1512.802 1909.410 C 1510.830 1909.785, 1505.014 1913.397, 1505.006 1914.250 C 1505.003 1914.662, 1504.213 1915.002, 1503.250 1915.004 C 1502.287 1915.006, 1500.027 1915.906, 1498.226 1917.004 C 1496.425 1918.102, 1494.325 1919, 1493.559 1919 C 1492.793 1919, 1492.017 1919.337, 1491.833 1919.750 C 1491.412 1920.699, 1480.842 1926, 1479.372 1926 C 1478.769 1926, 1474.777 1927.800, 1470.500 1930 C 1466.223 1932.200, 1462.327 1934, 1461.841 1934 C 1461.356 1934, 1457.118 1935.816, 1452.423 1938.036 C 1447.729 1940.256, 1442.563 1942.337, 1440.944 1942.661 C 1439.325 1942.985, 1438 1943.644, 1438 1944.125 C 1438 1944.606, 1437.319 1945, 1436.486 1945 C 1435.654 1945, 1434.191 1945.413, 1433.236 1945.918 C 1430.178 1947.536, 1422.580 1950.716, 1420 1951.459 C 1415.734 1952.687, 1412 1954.454, 1412 1955.244 C 1412 1955.660, 1411.093 1956, 1409.984 1956 C 1407.168 1956, 1400 1958.329, 1400 1959.243 C 1400 1959.660, 1399.319 1960, 1398.486 1960 C 1397.654 1960, 1396.191 1960.421, 1395.236 1960.935 C 1394.281 1961.449, 1390.688 1962.659, 1387.250 1963.624 C 1383.813 1964.589, 1381 1965.743, 1381 1966.189 C 1381 1966.635, 1379.902 1967, 1378.559 1967 C 1377.216 1967, 1375.840 1967.450, 1375.500 1968 C 1375.160 1968.550, 1373.777 1969, 1372.427 1969 C 1371.077 1969, 1369.191 1969.413, 1368.236 1969.917 C 1367.281 1970.421, 1362.258 1971.987, 1357.073 1973.395 C 1351.887 1974.804, 1347.387 1976.304, 1347.073 1976.728 C 1346.758 1977.153, 1345.375 1977.651, 1344 1977.836 C 1342.625 1978.022, 1341.073 1978.584, 1340.550 1979.086 C 1340.028 1979.589, 1337.890 1980, 1335.800 1980 C 1333.710 1980, 1332 1980.450, 1332 1981 C 1332 1981.550, 1330.677 1982, 1329.059 1982 C 1327.441 1982, 1325.840 1982.450, 1325.500 1983 C 1325.160 1983.550, 1323.360 1984, 1321.500 1984 C 1319.640 1984, 1317.840 1984.450, 1317.500 1985 C 1317.160 1985.550, 1315.135 1986, 1313 1986 C 1310.865 1986, 1308.840 1986.450, 1308.500 1987 C 1308.160 1987.550, 1306.628 1988, 1305.095 1988 C 1303.562 1988, 1300.894 1988.705, 1299.166 1989.567 C 1297.439 1990.429, 1295.621 1990.884, 1295.127 1990.579 C 1294.633 1990.273, 1290.690 1990.976, 1286.364 1992.141 C 1282.039 1993.305, 1277.033 1994.475, 1275.241 1994.740 C 1273.448 1995.004, 1271.734 1995.621, 1271.432 1996.110 C 1271.129 1996.600, 1268.235 1997, 1265 1997 C 1261.765 1997, 1258.840 1997.450, 1258.500 1998 C 1258.160 1998.550, 1255.910 1999, 1253.500 1999 C 1251.090 1999, 1248.840 1999.450, 1248.500 2000 C 1248.160 2000.550, 1245.235 2001, 1242 2001 C 1238.765 2001, 1235.840 2001.450, 1235.500 2002 C 1235.160 2002.550, 1232.629 2003, 1229.875 2003 C 1227.122 2003, 1223.886 2003.530, 1222.684 2004.177 C 1220.571 2005.316, 1213.053 2006.353, 1198.500 2007.513 C 1194.650 2007.820, 1190.825 2008.348, 1190 2008.687 C 1187.843 2009.574, 1171.603 2010.992, 1156.500 2011.612 C 1149.350 2011.906, 1143.073 2012.563, 1142.550 2013.073 C 1141.290 2014.303, 1018.725 2014.313, 1017.450 2013.084 C 1016.927 2012.580, 1010.650 2011.968, 1003.500 2011.725 C 996.350 2011.481, 989.825 2011.022, 989 2010.703 C 988.175 2010.385, 983.900 2009.909, 979.500 2009.645 C 975.100 2009.382, 970.825 2008.925, 970 2008.630 C 969.175 2008.335, 965.800 2007.881, 962.500 2007.622 C 959.200 2007.362, 953.170 2006.658, 949.101 2006.057 C 945.031 2005.456, 941.467 2005.199, 941.181 2005.486 C 940.894 2005.773, 939.698 2005.377, 938.522 2004.607 C 937.347 2003.836, 933.486 2003.070, 929.943 2002.903 C 926.399 2002.737, 923.035 2002.266, 922.467 2001.857 C 921.898 2001.449, 919.284 2001.003, 916.658 2000.867 C 914.032 2000.731, 911.658 2000.256, 911.383 1999.810 C 911.107 1999.365, 909.138 1999, 907.006 1999 C 904.874 1999, 901.953 1998.552, 900.514 1998.005 C 899.075 1997.458, 896.008 1996.799, 893.699 1996.540 C 889.709 1996.093, 887.124 1995.547, 877.186 1993.046 C 874.813 1992.450, 872.431 1992.234, 871.892 1992.567 C 871.353 1992.900, 870.249 1992.622, 869.438 1991.948 C 868.627 1991.275, 866.172 1990.337, 863.982 1989.862 C 861.792 1989.388, 858.313 1988.571, 856.250 1988.046 C 854.188 1987.521, 850.587 1986.621, 848.250 1986.046 C 845.913 1985.471, 842.087 1984.517, 839.750 1983.928 C 837.413 1983.338, 834.033 1982.613, 832.241 1982.317 C 830.448 1982.021, 828.734 1981.379, 828.432 1980.890 C 828.129 1980.400, 826.761 1980, 825.391 1980 C 824.021 1980, 821.532 1979.292, 819.860 1978.428 C 818.188 1977.563, 816.279 1977.063, 815.618 1977.316 C 814.957 1977.570, 813.562 1977.153, 812.517 1976.389 C 811.472 1975.625, 809.338 1975, 807.774 1975 C 806.209 1975, 803.802 1974.261, 802.424 1973.358 C 800.127 1971.853, 798.083 1971.239, 789.500 1969.472 C 787.850 1969.132, 784.745 1967.920, 782.599 1966.779 C 780.454 1965.637, 777.388 1964.550, 775.786 1964.363 C 774.183 1964.177, 771.901 1963.344, 770.714 1962.512 C 769.526 1961.680, 767.643 1960.998, 766.527 1960.996 C 765.412 1960.994, 762.286 1959.869, 759.581 1958.496 C 756.875 1957.123, 753.725 1955.995, 752.581 1955.988 C 751.436 1955.981, 748.543 1954.857, 746.151 1953.490 C 743.760 1952.123, 741.408 1951.248, 740.926 1951.546 C 740.444 1951.844, 737.676 1950.773, 734.775 1949.167 C 731.874 1947.561, 728.048 1945.932, 726.274 1945.549 C 724.500 1945.165, 720.675 1943.543, 717.774 1941.944 C 714.873 1940.345, 711.771 1939.028, 710.880 1939.018 C 709.989 1939.008, 705.776 1937.176, 701.518 1934.946 C 697.259 1932.716, 693.565 1931.102, 693.307 1931.359 C 692.850 1931.817, 684.608 1927.699, 674.378 1921.902 C 671.561 1920.306, 668.333 1919, 667.203 1919 C 666.074 1919, 660.477 1916.347, 654.766 1913.105 C 636.451 1902.707, 579.869 1869.942, 575.888 1867.429 C 573.772 1866.093, 571.815 1865, 571.539 1865 C 570.335 1865, 560 1857.848, 560 1857.014 C 560 1856.505, 556.737 1854.165, 552.750 1851.813 C 548.763 1849.462, 545.350 1847.192, 545.167 1846.769 C 544.983 1846.346, 544.211 1846, 543.450 1846 C 542.689 1846, 540.589 1844.525, 538.783 1842.721 C 536.978 1840.918, 532.800 1837.790, 529.500 1835.771 C 526.200 1833.751, 522.224 1830.727, 520.665 1829.050 C 515.980 1824.009, 515.479 1824.543, 512.841 1837.387 C 511.812 1842.399, 510.292 1849.650, 509.463 1853.500 C 508.634 1857.350, 507.449 1863.313, 506.830 1866.750 L 505.704 1873 441.349 1873 L 376.994 1873 381.247 1876.750 C 383.586 1878.813, 385.725 1880.741, 386 1881.037 C 386.795 1881.890, 406.178 1898.312, 409.603 1901.034 C 411.310 1902.390, 416.935 1906.905, 422.103 1911.067 C 443.210 1928.065, 469.499 1947.157, 500 1967.639 C 515.298 1977.913, 544.071 1995.530, 559 2003.765 C 561.475 2005.130, 564.922 2007.103, 566.660 2008.150 C 576.357 2013.987, 622.611 2037.462, 640.090 2045.417 C 648.552 2049.268, 656.792 2052.940, 660.500 2054.512 C 662.150 2055.212, 665.975 2056.886, 669 2058.232 C 672.025 2059.578, 678.775 2062.377, 684 2064.452 C 689.225 2066.526, 694.400 2068.588, 695.500 2069.033 C 696.600 2069.478, 703.125 2071.930, 710 2074.482 C 716.875 2077.034, 723.281 2079.544, 724.236 2080.061 C 725.191 2080.577, 726.660 2081, 727.500 2081 C 728.340 2081, 729.809 2081.433, 730.764 2081.961 C 731.719 2082.490, 737.450 2084.545, 743.500 2086.528 C 749.550 2088.511, 756.075 2090.946, 758 2091.938 C 759.925 2092.931, 764.200 2094.517, 767.500 2095.462 C 773.752 2097.253, 778.727 2098.785, 785.500 2101.006 C 789.441 2102.298, 793.116 2103.307, 800 2104.987 C 801.925 2105.457, 807.100 2106.813, 811.500 2108 C 822.234 2110.896, 828.621 2112.461, 841.500 2115.352 C 845.350 2116.216, 850.977 2117.581, 854.005 2118.385 C 857.033 2119.189, 863.558 2120.592, 868.505 2121.503 C 873.452 2122.415, 878.400 2123.347, 879.500 2123.576 C 885.871 2124.902, 936.022 2132.976, 944 2133.961 C 959.314 2135.850, 959.837 2135.909, 975 2137.434 C 991.803 2139.124, 997.928 2139.645, 1011 2140.500 C 1016.225 2140.842, 1022.975 2141.324, 1026 2141.571 C 1037.002 2142.469, 1104.952 2142.744, 1122 2141.959 C 1148.413 2140.742, 1181.590 2138.182, 1199 2136.018 C 1203.125 2135.505, 1208.975 2134.808, 1212 2134.468 C 1253.045 2129.860, 1313.953 2117.914, 1359 2105.635 C 1362.025 2104.811, 1368.079 2103.175, 1372.454 2102.001 C 1376.829 2100.826, 1380.697 2099.688, 1381.048 2099.470 C 1381.400 2099.253, 1387.721 2097.294, 1395.094 2095.117 C 1402.467 2092.940, 1415.700 2088.628, 1424.500 2085.534 C 1433.300 2082.440, 1442.525 2079.224, 1445 2078.387 C 1447.475 2077.550, 1450.918 2076.220, 1452.651 2075.433 C 1454.384 2074.645, 1456.082 2074, 1456.423 2074 C 1458.029 2074, 1498.447 2057.471, 1512.500 2051.067 C 1514.700 2050.065, 1520.325 2047.525, 1525 2045.422 C 1540.857 2038.292, 1590.835 2012.867, 1600.500 2007.014 C 1602.150 2006.015, 1605.075 2004.314, 1607 2003.234 C 1635.289 1987.363, 1678.679 1959.368, 1704 1940.649 C 1709.225 1936.787, 1715.973 1931.798, 1718.996 1929.563 C 1725.394 1924.833, 1752.264 1903.834, 1753 1902.989 C 1753.275 1902.674, 1757.550 1899.060, 1762.500 1894.958 C 1770.659 1888.198, 1781.909 1878.462, 1792.453 1869.034 C 1809.840 1853.489, 1845.998 1817.655, 1858.580 1803.500 C 1863.469 1798, 1867.701 1793.275, 1867.985 1793 C 1868.268 1792.725, 1871.646 1788.900, 1875.491 1784.500 C 1879.336 1780.100, 1882.718 1776.275, 1883.007 1776 C 1885.814 1773.323, 1912.249 1741.096, 1919.878 1731.050 C 1921.778 1728.547, 1926.087 1722.900, 1929.454 1718.500 C 1935.015 1711.233, 1938.363 1706.614, 1951.840 1687.618 C 1956.913 1680.468, 1977.527 1649.296, 1981.415 1642.897 C 1982.884 1640.479, 1984.629 1637.607, 1985.293 1636.516 C 1985.957 1635.426, 1987.668 1632.726, 1989.095 1630.516 C 2004.292 1606.998, 2036.429 1545.438, 2050.984 1511.967 C 2052.770 1507.860, 2055.228 1502.250, 2056.447 1499.500 C 2058.224 1495.490, 2064.639 1479.632, 2071.111 1463.250 C 2071.600 1462.013, 2072.417 1459.987, 2072.927 1458.750 C 2077.150 1448.503, 2093.552 1400.248, 2096.974 1388 C 2097.666 1385.525, 2098.606 1382.375, 2099.064 1381 C 2101.497 1373.689, 2105.331 1359.687, 2109.469 1343 C 2110.355 1339.425, 2111.504 1334.925, 2112.021 1333 C 2113.649 1326.945, 2116.793 1311.941, 2118.936 1300 C 2123.506 1274.527, 2130.900 1230.169, 2131.437 1225 C 2131.752 1221.975, 2132.449 1216.575, 2132.986 1213 C 2135.194 1198.309, 2138.574 1157.960, 2139.729 1132.500 C 2141.128 1101.650, 2140.362 1027.504, 2138.479 1011.500 C 2138.285 1009.850, 2137.630 1002.200, 2137.023 994.500 C 2134.149 957.997, 2126.818 906.867, 2119.536 872.548 C 2118.141 865.974, 2117 858.861, 2117 856.741 C 2117 853.163, 2116.206 848.719, 2114.008 840 C 2113.523 838.075, 2112.619 834.250, 2112 831.500 C 2109.764 821.575, 2109.017 818.715, 2103.903 800.500 C 2102.205 794.450, 2100.460 788.150, 2100.026 786.500 C 2099.592 784.850, 2098.574 781.475, 2097.763 779 C 2096.952 776.525, 2095.708 772.475, 2094.998 770 C 2093.227 763.822, 2083.121 732.966, 2082.061 730.500 C 2081.589 729.400, 2080.744 727.150, 2080.184 725.500 C 2077.883 718.722, 2069.811 697.377, 2068.939 695.764 C 2068.423 694.809, 2068 693.566, 2068 693.003 C 2068 692.439, 2067.154 690.071, 2066.121 687.739 C 2065.087 685.408, 2063.237 681.025, 2062.008 678 C 2060.780 674.975, 2058.878 670.475, 2057.782 668 C 2056.686 665.525, 2055.161 662.038, 2054.394 660.250 C 2047.597 644.408, 2044.736 638.335, 2031.430 611.500 C 2020.054 588.558, 2017.235 583.145, 2009.040 568.500 C 2007.501 565.750, 2005.126 561.475, 2003.762 559 C 1998.968 550.299, 1996.806 546.601, 1993.419 541.306 C 1991.538 538.366, 1990 535.805, 1990 535.614 C 1990 535.103, 1971.410 505.480, 1966.709 498.500 C 1958.688 486.592, 1957.215 484.430, 1954.105 480 C 1952.367 477.525, 1949.074 472.800, 1946.786 469.500 C 1942.335 463.078, 1922.912 436.833, 1921.995 436 C 1921.692 435.725, 1918.326 431.450, 1914.516 426.500 C 1910.705 421.550, 1905.907 415.475, 1903.854 413 C 1896.234 403.817, 1881.584 386.484, 1881.032 386 C 1880.718 385.725, 1877.592 382.238, 1874.085 378.250 C 1868.716 372.145, 1865 369.384, 1865 371.499 M 633 566.134 C 633 567.858, 632.582 570.895, 632.071 572.884 C 631.561 574.873, 630.399 580.325, 629.489 585 C 628.580 589.675, 627.459 595.300, 626.999 597.500 C 626.539 599.700, 625.623 604.200, 624.963 607.500 C 624.303 610.800, 623.187 616.200, 622.482 619.500 C 621.776 622.800, 620.673 628.200, 620.029 631.500 C 619.385 634.800, 618.244 639.975, 617.494 643 C 616.269 647.940, 615.013 653.829, 611.839 669.500 C 611.282 672.250, 610.416 676.127, 609.913 678.116 C 609.411 680.105, 609 682.706, 609 683.897 C 609 685.088, 608.325 686.322, 607.500 686.638 C 605.615 687.362, 605.590 688.733, 607.429 690.571 C 608.662 691.805, 667.916 692, 1041.799 692 L 1474.740 692 1475.811 687.750 C 1476.400 685.413, 1477.602 679.900, 1478.483 675.500 C 1479.364 671.100, 1480.490 665.475, 1480.984 663 C 1483.395 650.933, 1485.249 642.162, 1486.082 638.884 C 1486.587 636.895, 1487 634.104, 1487 632.681 C 1487 631.258, 1487.397 629.060, 1487.882 627.797 C 1488.710 625.642, 1489.689 621.366, 1493.558 603 C 1494.427 598.875, 1495.529 593.700, 1496.006 591.500 C 1496.483 589.300, 1497.661 583.788, 1498.625 579.250 C 1499.589 574.712, 1500.742 571, 1501.189 571 C 1501.635 571, 1502 569.200, 1502 567 L 1502 563 1067.500 563 L 633 563 633 566.134 M 900.658 1024.309 C 899.794 1026.128, 898.595 1030.291, 897.994 1033.559 C 897.392 1036.826, 896.530 1041.525, 896.079 1044 C 895.035 1049.728, 891.142 1068.409, 890.036 1073 C 889.572 1074.925, 888.427 1080.100, 887.492 1084.500 C 886.556 1088.900, 885.216 1095.200, 884.514 1098.500 C 883.811 1101.800, 882.685 1107.200, 882.011 1110.500 C 878.987 1125.304, 877.820 1130.745, 876.942 1134.116 C 876.424 1136.105, 876 1138.692, 876 1139.866 C 876 1141.040, 875.550 1142, 875 1142 C 874.450 1142, 874 1143.800, 874 1146 L 874 1150 1136.500 1150 C 1310.833 1150, 1399 1150.336, 1399 1151 C 1399 1151.646, 1410.667 1152, 1432 1152 C 1453.333 1152, 1465 1151.646, 1465 1151 C 1465 1150.389, 1469.647 1150, 1476.941 1150 C 1490.978 1150, 1489.383 1151.604, 1493.121 1133.727 C 1502.197 1090.316, 1504.318 1080.080, 1505.080 1076 C 1505.542 1073.525, 1507.075 1066.100, 1508.486 1059.500 C 1509.897 1052.900, 1511.451 1045.250, 1511.939 1042.500 C 1512.428 1039.750, 1513.531 1034.475, 1514.393 1030.778 C 1515.254 1027.080, 1515.695 1023.368, 1515.372 1022.528 C 1514.848 1021.162, 1482.292 1021, 1208.507 1021 L 902.228 1021 900.658 1024.309 M 806.647 1462.750 C 805.701 1467.013, 804.535 1472.075, 804.055 1474 C 803.575 1475.925, 802.717 1479.750, 802.148 1482.500 C 800.905 1488.508, 796.512 1507.166, 794.378 1515.500 C 792.465 1522.968, 791.575 1526.634, 789.523 1535.500 C 788.632 1539.350, 787.524 1544.075, 787.061 1546 C 786.598 1547.925, 785.170 1554.112, 783.887 1559.750 L 781.555 1570 675.296 1570 L 569.038 1570 568.543 1572.250 C 568.271 1573.487, 567.372 1577.875, 566.546 1582 C 565.720 1586.125, 563.660 1596.025, 561.967 1604 C 560.275 1611.975, 558.474 1620.525, 557.964 1623 C 557.454 1625.475, 555.877 1632.900, 554.459 1639.500 C 553.041 1646.100, 551.471 1653.750, 550.971 1656.500 C 550.471 1659.250, 549.148 1665.731, 548.031 1670.902 C 546.914 1676.073, 546 1680.460, 546 1680.652 C 546 1680.843, 593.025 1681, 650.500 1681 C 747.807 1681, 755 1681.116, 755 1682.684 C 755 1683.611, 754.343 1686.873, 753.541 1689.934 C 750.817 1700.325, 743.262 1732.702, 741.043 1743.500 C 740.364 1746.800, 739.402 1750.534, 738.905 1751.797 C 738.407 1753.060, 738 1755.046, 738 1756.209 C 738 1757.372, 737.283 1760.839, 736.407 1763.912 C 735.531 1766.985, 734.442 1771.075, 733.987 1773 C 733.531 1774.925, 732.463 1779.200, 731.613 1782.500 C 730.762 1785.800, 729.365 1791.650, 728.508 1795.500 C 726.982 1802.353, 726.179 1805.922, 724.119 1815 C 723.557 1817.475, 722.578 1821.975, 721.942 1825 C 721.307 1828.025, 720.385 1831.281, 719.893 1832.236 C 719.402 1833.191, 719 1835.554, 719 1837.486 L 719 1841 792.900 1841 L 866.801 1841 867.944 1835.750 C 868.573 1832.862, 869.477 1828.925, 869.953 1827 C 870.429 1825.075, 871.287 1821.250, 871.860 1818.500 C 872.789 1814.044, 876.799 1796.392, 879.015 1787 C 879.469 1785.075, 880.533 1780.800, 881.378 1777.500 C 883.348 1769.806, 887.176 1753.639, 890.493 1739 C 891.927 1732.675, 893.486 1725.925, 893.959 1724 C 894.431 1722.075, 895.326 1718.025, 895.947 1715 C 896.568 1711.975, 897.770 1706.800, 898.618 1703.500 C 899.465 1700.200, 900.545 1695.925, 901.016 1694 C 901.488 1692.075, 902.411 1688.362, 903.067 1685.750 L 904.260 1681 1022.424 1681 L 1140.587 1681 1141.903 1674.750 C 1142.627 1671.313, 1143.787 1666.025, 1144.480 1663 C 1145.174 1659.975, 1146.277 1654.800, 1146.931 1651.500 C 1147.585 1648.200, 1148.543 1644.118, 1149.060 1642.429 C 1149.577 1640.740, 1150 1638.297, 1150 1637 C 1150 1635.703, 1150.423 1633.260, 1150.940 1631.571 C 1151.457 1629.882, 1152.393 1625.800, 1153.021 1622.500 C 1153.649 1619.200, 1154.551 1614.700, 1155.026 1612.500 C 1155.501 1610.300, 1156.614 1605.125, 1157.500 1601 C 1158.386 1596.875, 1159.508 1591.700, 1159.994 1589.500 C 1160.479 1587.300, 1161.447 1582.688, 1162.144 1579.250 C 1162.842 1575.813, 1163.770 1573, 1164.206 1573 C 1164.643 1573, 1165 1572.325, 1165 1571.500 C 1165 1570.175, 1151.292 1570, 1047.624 1570 L 930.248 1570 931.625 1563.750 C 932.382 1560.313, 933.501 1555.250, 934.111 1552.500 C 934.720 1549.750, 935.582 1545.700, 936.026 1543.500 C 936.469 1541.300, 937.574 1536.800, 938.480 1533.500 C 939.386 1530.200, 940.520 1525.700, 941 1523.500 C 941.480 1521.300, 942.545 1516.800, 943.366 1513.500 C 944.923 1507.246, 946.660 1499.700, 949.467 1487 C 950.379 1482.875, 951.547 1478.118, 952.062 1476.429 C 952.578 1474.740, 953 1472.348, 953 1471.113 C 953 1469.879, 953.424 1468.076, 953.943 1467.107 C 954.461 1466.139, 955.194 1463.018, 955.571 1460.173 L 956.258 1455 882.312 1455 L 808.366 1455 806.647 1462.750 M 1222 1456.326 C 1222 1457.055, 1223.173 1458.742, 1224.608 1460.076 C 1233.356 1468.209, 1261.122 1508.929, 1276.037 1535.500 C 1284.961 1551.397, 1290.031 1560.941, 1297.244 1575.420 C 1306.042 1593.080, 1311.963 1605.836, 1320.722 1626 C 1322.291 1629.613, 1331.389 1652.229, 1335.001 1661.500 C 1338.005 1669.207, 1343.358 1682.843, 1344.031 1684.500 C 1344.478 1685.600, 1347.839 1694.375, 1351.500 1704 C 1355.161 1713.625, 1358.531 1722.400, 1358.989 1723.500 C 1359.447 1724.600, 1362.820 1733.375, 1366.485 1743 C 1370.149 1752.625, 1373.527 1761.400, 1373.990 1762.500 C 1374.453 1763.600, 1377.378 1771.250, 1380.491 1779.500 C 1383.604 1787.750, 1386.531 1795.400, 1386.997 1796.500 C 1387.463 1797.600, 1390.831 1806.375, 1394.482 1816 C 1398.133 1825.625, 1401.543 1834.281, 1402.060 1835.236 C 1402.577 1836.191, 1403 1837.879, 1403 1838.986 C 1403 1840.986, 1403.500 1841, 1477 1841 C 1555.188 1841, 1557.094 1840.885, 1550.123 1836.576 C 1549.641 1836.278, 1548.239 1833.439, 1547.008 1830.267 C 1545.777 1827.095, 1543.922 1822.592, 1542.885 1820.261 C 1541.848 1817.929, 1541 1815.432, 1541 1814.711 C 1541 1813.990, 1540.628 1812.973, 1540.174 1812.450 C 1539.719 1811.928, 1537.657 1807.225, 1535.590 1802 C 1530.904 1790.151, 1530.576 1789.346, 1528.565 1784.771 C 1527.664 1782.721, 1525.864 1778.219, 1524.565 1774.768 C 1523.266 1771.317, 1521.420 1766.695, 1520.463 1764.497 C 1519.506 1762.298, 1518.335 1759.487, 1517.861 1758.250 C 1517.388 1757.013, 1516.550 1754.875, 1516 1753.500 C 1515.450 1752.125, 1514.595 1749.987, 1514.100 1748.750 C 1513.604 1747.513, 1512.254 1744.367, 1511.100 1741.761 C 1509.945 1739.154, 1509 1736.763, 1509 1736.447 C 1509 1736.131, 1507.875 1733.412, 1506.500 1730.406 C 1505.125 1727.400, 1504 1724.498, 1504 1723.957 C 1504 1723.416, 1503.603 1722.191, 1503.117 1721.236 C 1502.631 1720.281, 1501.776 1718.375, 1501.216 1717 C 1500.657 1715.625, 1499.254 1712.367, 1498.100 1709.761 C 1496.945 1707.154, 1496 1704.736, 1496 1704.386 C 1496 1704.036, 1494.825 1700.994, 1493.388 1697.625 C 1491.952 1694.256, 1490.377 1690.487, 1489.888 1689.250 C 1489.400 1688.013, 1488.490 1685.763, 1487.866 1684.250 C 1487.243 1682.737, 1486.388 1680.600, 1485.968 1679.500 C 1485.548 1678.400, 1484.483 1675.857, 1483.602 1673.849 C 1482.721 1671.841, 1482 1669.923, 1482 1669.588 C 1482 1669.253, 1481.055 1666.846, 1479.900 1664.239 C 1478.746 1661.633, 1477.396 1658.487, 1476.900 1657.250 C 1476.405 1656.013, 1475.595 1653.987, 1475.100 1652.750 C 1474.604 1651.513, 1473.254 1648.367, 1472.100 1645.761 C 1470.945 1643.154, 1470 1640.843, 1470 1640.624 C 1470 1640.406, 1467.942 1635.788, 1465.427 1630.364 C 1462.912 1624.939, 1460.149 1618.925, 1459.286 1617 C 1455.953 1609.562, 1441.112 1580.239, 1438.133 1575.206 C 1436.410 1572.294, 1435 1569.733, 1435 1569.514 C 1435 1568.892, 1418.818 1541.175, 1414.693 1534.731 C 1412.662 1531.557, 1411 1528.757, 1411 1528.508 C 1411 1527.989, 1390.119 1496.255, 1384.345 1488 C 1379.845 1481.566, 1375.153 1475.515, 1365.500 1463.700 L 1358.500 1455.132 1290.250 1455.066 C 1234.205 1455.012, 1222 1455.237, 1222 1456.326" stroke="none" fill="#ffffff" fill-rule="evenodd"/><path d="M 1048 289.042 C 1048 290.902, 1046.706 298.147, 1043.989 311.500 C 1040.168 330.278, 1038.616 338.062, 1037.909 342 C 1035.628 354.695, 1034.904 358.123, 1033.994 360.516 C 1033.447 361.954, 1033 364.306, 1033 365.744 C 1033 367.182, 1032.577 369.740, 1032.061 371.429 C 1031.545 373.118, 1030.383 378.325, 1029.479 383 C 1028.575 387.675, 1027.445 393.300, 1026.967 395.500 C 1026.132 399.348, 1024.021 410.019, 1022.021 420.500 C 1021.497 423.250, 1020.799 426.850, 1020.472 428.500 C 1020.144 430.150, 1019.512 433.525, 1019.066 436 C 1017.855 442.719, 1015.989 451.105, 1014.934 454.571 C 1014.421 456.260, 1014 458.695, 1014 459.983 C 1014 461.271, 1013.228 464.774, 1012.284 467.768 C 1010.625 473.031, 1010.631 473.257, 1012.480 474.609 C 1014.107 475.798, 1060.160 476.007, 1321.945 476.011 C 1613.733 476.016, 1629.490 476.105, 1629.296 477.758 C 1629.183 478.716, 1628.439 482.425, 1627.641 486 C 1626.843 489.575, 1625.714 494.750, 1625.132 497.500 C 1624.550 500.250, 1623.369 505.650, 1622.507 509.500 C 1621.646 513.350, 1620.521 518.750, 1620.007 521.500 C 1619.493 524.250, 1617.920 531.900, 1616.510 538.500 C 1615.101 545.100, 1613.515 552.750, 1612.985 555.500 C 1612.456 558.250, 1611.345 563.425, 1610.516 567 C 1609.687 570.575, 1606.565 585.425, 1603.577 600 C 1600.590 614.575, 1596.966 632.125, 1595.524 639 C 1594.082 645.875, 1592.482 653.525, 1591.970 656 C 1591.458 658.475, 1590.345 663.650, 1589.498 667.500 C 1588.650 671.350, 1587.293 677.875, 1586.482 682 C 1584.105 694.083, 1582.883 700.112, 1581.518 706.500 C 1580.813 709.800, 1579.697 715.200, 1579.037 718.500 C 1577.336 727.009, 1576.367 731.572, 1574.684 739 C 1573.874 742.575, 1572.745 747.750, 1572.176 750.500 C 1571.607 753.250, 1570.460 758.650, 1569.628 762.500 C 1568.795 766.350, 1567.843 771.187, 1567.512 773.249 L 1566.910 776.998 1036.746 777.249 L 506.582 777.500 505.285 783.500 C 504.572 786.800, 503.597 791.525, 503.119 794 C 499.347 813.542, 497.814 820.917, 496.973 823.571 C 496.438 825.260, 496 827.703, 496 829 C 496 830.297, 495.587 832.740, 495.082 834.429 C 494.577 836.118, 493.405 841.100, 492.477 845.500 C 491.550 849.900, 490.145 856.425, 489.355 860 C 488.565 863.575, 487.497 868.525, 486.982 871 C 486.466 873.475, 485.328 878.875, 484.452 883 C 482.858 890.503, 482.105 894.260, 479.941 905.500 C 477.979 915.690, 475.851 925.365, 474.904 928.399 C 474.407 929.994, 474 932.384, 474 933.711 C 474 935.038, 473.368 938.234, 472.596 940.812 C 471.824 943.390, 470.660 948.200, 470.009 951.500 C 469.359 954.800, 468.230 960.425, 467.500 964 C 466.770 967.575, 465.648 973.200, 465.006 976.500 C 464.363 979.800, 463.451 984.300, 462.978 986.500 C 462.505 988.700, 461.392 994.100, 460.505 998.500 C 459.617 1002.900, 458.466 1007.882, 457.946 1009.571 C 457.426 1011.260, 457 1013.818, 457 1015.256 C 457 1016.694, 456.513 1019.137, 455.918 1020.685 C 455.322 1022.233, 454.419 1025.750, 453.910 1028.500 C 453.401 1031.250, 452.309 1036.650, 451.483 1040.500 C 450.657 1044.350, 449.548 1049.750, 449.020 1052.500 C 448.491 1055.250, 447.349 1060.650, 446.482 1064.500 C 445.033 1070.935, 444.358 1074.281, 441.946 1087 C 440.058 1096.949, 439.266 1100.677, 438.227 1104.500 C 437.630 1106.700, 436.606 1111.200, 435.952 1114.500 C 435.299 1117.800, 434.184 1123.200, 433.476 1126.500 C 432.768 1129.800, 431.444 1136.100, 430.535 1140.500 C 429.626 1144.900, 428.495 1150.300, 428.022 1152.500 C 427.549 1154.700, 426.700 1158.975, 426.136 1162 C 423.810 1174.459, 421.802 1183.634, 420.928 1185.797 C 420.418 1187.060, 420 1189.241, 420 1190.643 C 420 1192.045, 419.383 1195.511, 418.629 1198.346 C 417.874 1201.181, 416.781 1205.750, 416.199 1208.500 C 415.617 1211.250, 414.473 1216.650, 413.657 1220.500 C 412.841 1224.350, 411.689 1229.975, 411.096 1233 C 409.870 1239.257, 405.478 1260.982, 404.525 1265.500 C 402.583 1274.709, 402.056 1277.119, 400.585 1283.500 C 398.797 1291.251, 396.217 1303.339, 395.035 1309.500 C 394.613 1311.700, 393.314 1318.225, 392.148 1324 C 390.982 1329.775, 389.545 1336.975, 388.954 1340 C 388.363 1343.025, 387.457 1346.882, 386.940 1348.571 C 386.423 1350.260, 386 1352.695, 386 1353.983 C 386 1355.271, 385.360 1358.614, 384.577 1361.412 C 383.795 1364.210, 382.688 1368.750, 382.118 1371.500 C 381.548 1374.250, 380.438 1379.425, 379.652 1383 C 377.064 1394.766, 374.422 1407.614, 371.941 1420.500 C 370.249 1429.288, 368 1439.996, 367.007 1444 C 366.529 1445.925, 365.405 1451.100, 364.510 1455.500 C 363.614 1459.900, 362.483 1465.300, 361.996 1467.500 C 360.685 1473.424, 358.335 1484.683, 356.987 1491.500 C 356.334 1494.800, 355.224 1500.200, 354.518 1503.500 C 353.813 1506.800, 352.706 1512.200, 352.058 1515.500 C 351.410 1518.800, 350.457 1522.882, 349.940 1524.571 C 349.423 1526.260, 349 1528.818, 349 1530.256 C 349 1531.694, 348.513 1534.137, 347.918 1535.685 C 347.322 1537.233, 346.436 1540.750, 345.947 1543.500 C 345.458 1546.250, 344.349 1551.650, 343.482 1555.500 C 342.615 1559.350, 341.490 1564.750, 340.982 1567.500 C 340.474 1570.250, 339.349 1575.650, 338.482 1579.500 C 337.025 1585.972, 336.202 1590.059, 333.951 1602 C 333.485 1604.475, 332.657 1608.861, 332.112 1611.747 C 331.567 1614.633, 330.827 1617.471, 330.467 1618.054 C 329.472 1619.664, 327.797 1629.990, 327.800 1634.500 C 327.801 1637.847, 322.361 1666.302, 319.005 1680.500 C 318.485 1682.700, 316.923 1690.125, 315.533 1697 C 312.224 1713.365, 311.443 1717.124, 309.606 1725.500 C 308.762 1729.350, 306.930 1738.013, 305.536 1744.750 C 295.942 1791.095, 295.935 1791.125, 294.399 1793 C 293.722 1793.825, 292.886 1796.300, 292.540 1798.500 C 292.194 1800.700, 291.505 1804.075, 291.008 1806 C 290.511 1807.925, 289.372 1813.100, 288.477 1817.500 C 287.581 1821.900, 286.470 1827.300, 286.007 1829.500 C 285.543 1831.700, 284.420 1837.325, 283.511 1842 C 282.601 1846.675, 281.439 1852.127, 280.929 1854.116 C 280.418 1856.105, 280 1858.692, 280 1859.866 C 280 1861.040, 279.550 1862, 279 1862 C 278.450 1862, 278 1864.475, 278 1867.500 L 278 1873 391.852 1873 L 505.704 1873 506.830 1866.750 C 507.449 1863.313, 508.634 1857.350, 509.463 1853.500 C 510.292 1849.650, 511.816 1842.450, 512.849 1837.500 C 513.883 1832.550, 515.435 1827.150, 516.297 1825.500 C 517.160 1823.850, 518.399 1819.800, 519.051 1816.500 C 519.703 1813.200, 520.863 1807.575, 521.629 1804 C 522.395 1800.425, 523.433 1795.475, 523.937 1793 C 527.163 1777.134, 528.235 1772.093, 529.065 1768.884 C 529.579 1766.895, 530 1764.227, 530 1762.955 C 530 1761.683, 530.413 1759.260, 530.918 1757.571 C 531.423 1755.882, 532.584 1750.900, 533.498 1746.500 C 534.411 1742.100, 535.558 1736.925, 536.047 1735 C 536.958 1731.408, 538.640 1723.583, 540.022 1716.500 C 540.451 1714.300, 541.577 1708.900, 542.523 1704.500 C 545.265 1691.753, 546.089 1686.871, 546.490 1681 C 546.697 1677.975, 547.584 1672.350, 548.462 1668.500 C 549.340 1664.650, 550.469 1659.250, 550.970 1656.500 C 551.471 1653.750, 553.032 1646.100, 554.437 1639.500 C 561.915 1604.394, 563.076 1598.884, 566.530 1582.097 C 567.820 1575.826, 569.369 1570.390, 569.971 1570.018 C 570.574 1569.645, 571.474 1567.127, 571.972 1564.420 C 572.471 1561.714, 573.625 1556.125, 574.537 1552 C 575.449 1547.875, 576.541 1542.700, 576.964 1540.500 C 577.387 1538.300, 578.686 1531.775, 579.852 1526 C 581.018 1520.225, 582.455 1513.025, 583.046 1510 C 583.637 1506.975, 584.543 1503.118, 585.060 1501.429 C 585.577 1499.740, 586 1497.182, 586 1495.744 C 586 1494.306, 586.487 1491.863, 587.082 1490.315 C 587.678 1488.767, 588.573 1485.250, 589.071 1482.500 C 589.569 1479.750, 590.663 1474.575, 591.500 1471 C 592.337 1467.425, 593.444 1462.250, 593.960 1459.500 C 594.475 1456.750, 595.823 1450, 596.954 1444.500 C 598.086 1439, 599.508 1432.025, 600.113 1429 C 602.746 1415.852, 604.225 1409.351, 605.061 1407.251 L 605.956 1405.002 1133.228 1404.751 L 1660.500 1404.500 1661.726 1398.500 C 1663.122 1391.674, 1664.786 1382.818, 1666.050 1375.500 C 1666.525 1372.750, 1667.656 1367.350, 1668.564 1363.500 C 1669.472 1359.650, 1670.568 1354.475, 1671.001 1352 C 1671.433 1349.525, 1672.561 1343.900, 1673.508 1339.500 C 1674.454 1335.100, 1675.583 1329.700, 1676.017 1327.500 C 1676.451 1325.300, 1677.572 1319.675, 1678.508 1315 C 1679.444 1310.325, 1680.568 1304.475, 1681.005 1302 C 1682.336 1294.461, 1683.863 1286.850, 1685.518 1279.500 C 1686.385 1275.650, 1687.564 1270.025, 1688.140 1267 C 1691.056 1251.658, 1695.605 1228.820, 1703.675 1189 C 1707.298 1171.125, 1710.444 1155.375, 1710.665 1154 C 1711.131 1151.107, 1712.190 1145.664, 1715.143 1131 C 1716.305 1125.225, 1717.439 1119.375, 1717.662 1118 C 1719.157 1108.781, 1722.894 1090.403, 1724.082 1086.429 C 1724.587 1084.740, 1725 1082.182, 1725 1080.744 C 1725 1079.306, 1725.441 1076.970, 1725.980 1075.552 C 1726.519 1074.134, 1727.404 1070.392, 1727.946 1067.237 C 1728.488 1064.082, 1729.841 1057, 1730.953 1051.500 C 1733.124 1040.754, 1734.429 1034.066, 1735.978 1025.750 C 1737.454 1017.822, 1740.068 1004.939, 1741 1001 C 1741.782 997.695, 1743.878 987.665, 1746.121 976.500 C 1746.674 973.750, 1747.736 968.575, 1748.481 965 C 1750.007 957.687, 1751.730 948.748, 1752.338 945 C 1752.696 942.793, 1754.395 934.220, 1758.085 916 C 1758.698 912.975, 1759.776 907.800, 1760.482 904.500 C 1762.734 893.962, 1763.823 888.556, 1775.096 832 C 1781.180 801.475, 1786.554 774.025, 1787.037 771 C 1787.521 767.975, 1788.829 761, 1789.945 755.500 C 1791.060 750, 1792.461 743.025, 1793.057 740 C 1793.653 736.975, 1794.589 732.772, 1795.137 730.660 C 1795.686 728.548, 1796.596 724.273, 1797.160 721.160 C 1797.724 718.047, 1798.550 713.700, 1798.995 711.500 C 1801.359 699.832, 1803.298 689.954, 1804.100 685.500 C 1804.595 682.750, 1805.414 678.475, 1805.921 676 C 1808.973 661.093, 1810.342 654.049, 1812.994 639.592 C 1813.590 636.343, 1814.307 633.312, 1814.589 632.856 C 1814.870 632.401, 1815.522 629.660, 1816.037 626.764 C 1816.553 623.869, 1817.703 618.125, 1818.593 614 C 1819.483 609.875, 1820.550 604.475, 1820.964 602 C 1821.378 599.525, 1822.674 592.775, 1823.844 587 C 1825.014 581.225, 1826.413 574.250, 1826.952 571.500 C 1827.491 568.750, 1828.201 565.150, 1828.528 563.500 C 1828.856 561.850, 1829.483 558.475, 1829.923 556 C 1830.362 553.525, 1831.209 549.475, 1831.804 547 C 1834.285 536.685, 1835.042 532.111, 1835.444 525 C 1835.677 520.875, 1842.422 484.762, 1850.434 444.749 C 1858.445 404.737, 1865 371.774, 1865 371.499 C 1865 371.225, 1865.618 371, 1866.373 371 C 1867.266 371, 1867.939 369.341, 1868.300 366.250 C 1868.605 363.637, 1869.781 357, 1870.914 351.500 C 1874.496 334.106, 1874.981 331.735, 1877.156 321 C 1879.374 310.051, 1880.572 303.428, 1881.632 296.250 C 1881.978 293.913, 1882.652 292, 1883.130 292 C 1883.609 292, 1884 290.875, 1884 289.500 L 1884 287 1466 287 L 1048 287 1048 289.042 M 1065.847 958.750 L 699.195 959.003 698.097 962.151 C 697.494 963.882, 697 966.204, 697 967.311 C 697 968.418, 696.352 971.614, 695.561 974.412 C 694.770 977.210, 693.601 982.200, 692.965 985.500 C 692.328 988.800, 691.389 993.525, 690.877 996 C 689.545 1002.445, 685.869 1020.790, 684.966 1025.500 C 684.544 1027.700, 683.465 1032.650, 682.569 1036.500 C 681.672 1040.350, 680.481 1046.156, 679.923 1049.402 C 679.364 1052.649, 678.478 1056.107, 677.954 1057.087 C 677.429 1058.067, 677 1060.104, 677 1061.613 C 677 1063.123, 676.571 1065.740, 676.046 1067.429 C 675.007 1070.774, 671.192 1088.782, 669.994 1096 C 669.129 1101.211, 664.746 1122.294, 662.406 1132.500 C 661.524 1136.350, 660.449 1141.300, 660.019 1143.500 C 659.589 1145.700, 658.452 1150.875, 657.492 1155 C 656.533 1159.125, 655.354 1164.638, 654.874 1167.250 C 654.393 1169.862, 653.605 1174.138, 653.122 1176.750 C 652.639 1179.362, 651.472 1185.100, 650.527 1189.500 C 649.583 1193.900, 648.419 1199.525, 647.940 1202 C 647.461 1204.475, 646.438 1209.088, 645.666 1212.250 C 644.894 1215.412, 644.316 1218.006, 644.381 1218.014 C 656.705 1219.509, 1471.832 1218.899, 1473.115 1217.394 C 1474.003 1216.352, 1475.055 1213.700, 1475.452 1211.500 C 1476.725 1204.451, 1477.711 1199.613, 1478.812 1195 C 1479.403 1192.525, 1480.344 1188.250, 1480.903 1185.500 C 1481.461 1182.750, 1482.570 1177.575, 1483.365 1174 C 1484.161 1170.425, 1485.558 1163.900, 1486.469 1159.500 C 1487.381 1155.100, 1488.592 1150.648, 1489.161 1149.607 C 1489.730 1148.565, 1491.523 1141.365, 1493.146 1133.607 C 1502.135 1090.615, 1504.318 1080.078, 1505.080 1076 C 1505.542 1073.525, 1507.075 1066.100, 1508.486 1059.500 C 1509.897 1052.900, 1511.451 1045.250, 1511.939 1042.500 C 1512.428 1039.750, 1513.543 1034.424, 1514.419 1030.664 C 1515.295 1026.904, 1515.788 1023.466, 1515.515 1023.024 C 1515.016 1022.217, 1519.827 998.053, 1524.578 977.500 C 1529.776 955.016, 1536.567 957.953, 1480.083 958.249 C 1453.912 958.385, 1267.506 958.611, 1065.847 958.750" stroke="none" fill="#000000" fill-rule="evenodd"/></svg>